# xmcd
#
# Track frame offsets: 
#        150
#        21768
#        42701
#        76152
#        100485
#        110498
#        116326
#        141291
#        169515
#        188581
#        225876
#        256274
#        274467
#        304396
#
# Disc length: 4562 seconds
#
# Revision: 0
# Processed by: cddbd v1.5.2PL0 Copyright (c) Steve Scherf et al.
# Submitted via: ExactAudioCopy v1.3
#
DISCID=b811d00e
DTITLE=Eric Clapton - Crossroads Guitar Festival 2013 [CD1]
DYEAR=2013
DGENRE=Blues
TTITLE0=Tears in Heaven
TTITLE1=Eric Clapton with Vince Gill - Lay Down Sally
TTITLE2=Booker T. with Steve Cropper, Keb' Mo', Blake Mills, Matt "Gui
TTITLE2=tar" Murphy and Albert Lee - Green Onions
TTITLE3=Kurt Rosenwinkel - Heavenly Bodies
TTITLE4=Earl Klugh - This Time
TTITLE5=Earl Klugh - Mirabella
TTITLE6=The Robert Cray Band - Great Big Old House
TTITLE7=Doyle Bramhall II with Gary Clark Jr. - She's Alright
TTITLE8=Doyle Bramhall II with Citizen Cope - Bullet and a Target
TTITLE9=John Mayer - Queen of California
TTITLE10=John Mayer with Keith Urban - Don't Let Me Down
TTITLE11=Gary Clark Jr. - Next Door Neighbor Blues
TTITLE12=Buddy Guy with Robert Randolph and Quinn Sullivan - Damn Right,
TTITLE12=I've Got the Blues
TTITLE13=The Allman Brothers Band with Eric Clapton - Why Does Love Go
TTITLE13=t to Be So Sad
EXTD=
EXTT0=
EXTT1=
EXTT2=
EXTT3=
EXTT4=
EXTT5=
EXTT6=
EXTT7=
EXTT8=
EXTT9=
EXTT10=
EXTT11=
EXTT12=
EXTT13=
PLAYORDER=
